<svg width="22" height="22" viewBox="0 0 22 22" fill="none" xmlns="http://www.w3.org/2000/svg">
<g clip-path="url(#clip0_125_2067)">
<path d="M18.8355 15.4942C18.5348 16.1888 18.1789 16.8282 17.7666 17.416C17.2045 18.2174 16.7443 18.7721 16.3897 19.0801C15.8399 19.5857 15.2508 19.8447 14.62 19.8594C14.1672 19.8594 13.6211 19.7305 12.9854 19.4691C12.3476 19.209 11.7615 19.0801 11.2256 19.0801C10.6635 19.0801 10.0607 19.209 9.41591 19.4691C8.77015 19.7305 8.24993 19.8668 7.85219 19.8803C7.2473 19.906 6.64437 19.6397 6.04255 19.0801C5.65843 18.7451 5.17798 18.1708 4.60241 17.3571C3.98488 16.4882 3.47718 15.4807 3.07944 14.332C2.65348 13.0913 2.43994 11.8899 2.43994 10.7267C2.43994 9.39433 2.72785 8.24516 3.30451 7.28217C3.75772 6.50866 4.36065 5.89848 5.11526 5.45055C5.86988 5.00262 6.68524 4.77436 7.56331 4.75975C8.04376 4.75975 8.67381 4.90837 9.45677 5.20045C10.2375 5.4935 10.7388 5.64212 10.9586 5.64212C11.123 5.64212 11.6799 5.46835 12.624 5.1219C13.5168 4.80062 14.2703 4.66759 14.8876 4.71999C16.5602 4.85498 17.8169 5.51437 18.6526 6.70231C17.1567 7.60873 16.4167 8.87828 16.4314 10.5069C16.4449 11.7755 16.9051 12.8311 17.8095 13.6693C18.2194 14.0584 18.6772 14.359 19.1865 14.5726C19.076 14.8929 18.9594 15.1997 18.8355 15.4942ZM14.9992 0.398231C14.9992 1.39253 14.636 2.32091 13.9119 3.1802C13.0381 4.20174 11.9813 4.79203 10.8352 4.69888C10.8206 4.5796 10.8121 4.45405 10.8121 4.32213C10.8121 3.3676 11.2276 2.34607 11.9656 1.51082C12.334 1.08793 12.8025 0.736292 13.3707 0.455787C13.9377 0.179467 14.474 0.0266565 14.9784 0.000488281C14.9931 0.133411 14.9992 0.266342 14.9992 0.398218V0.398231Z" fill="black"/>
</g>
<defs>
<clipPath id="clip0_125_2067">
<rect width="21.6889" height="21.6889" fill="white"/>
</clipPath>
</defs>
</svg>
