<svg width="17" height="17" viewBox="0 0 17 17" fill="none" xmlns="http://www.w3.org/2000/svg">
<rect width="17" height="17" rx="8.5" fill="#192633"/>
<path d="M7.56124 11.4106C7.61792 11.4682 7.66339 11.5377 7.69492 11.6149C7.72645 11.692 7.74341 11.7753 7.74478 11.8598C7.74614 11.9443 7.73189 12.0282 7.70288 12.1065C7.67386 12.1848 7.63067 12.256 7.57588 12.3157C7.5211 12.3755 7.45584 12.4226 7.384 12.4542C7.31215 12.4859 7.23521 12.5014 7.15774 12.4999C7.08027 12.4984 7.00387 12.4799 6.9331 12.4455C6.86233 12.4112 6.79863 12.3616 6.74581 12.2998L3.66873 8.94456C3.56069 8.82661 3.5 8.66671 3.5 8.5C3.5 8.33329 3.56069 8.17339 3.66873 8.05543L6.74581 4.70023C6.79863 4.63842 6.86233 4.58885 6.9331 4.55446C7.00387 4.52008 7.08027 4.50159 7.15774 4.5001C7.23521 4.49861 7.31215 4.51415 7.384 4.54579C7.45584 4.57743 7.5211 4.62452 7.57588 4.68426C7.63067 4.744 7.67386 4.81516 7.70288 4.89349C7.73189 4.97183 7.74615 5.05573 7.74478 5.1402C7.74341 5.22467 7.72646 5.30797 7.69492 5.38514C7.66339 5.46231 7.61792 5.53176 7.56124 5.58936L5.46882 7.8709L12.923 7.8709C13.0761 7.8709 13.2228 7.93718 13.331 8.05516C13.4392 8.17314 13.5 8.33315 13.5 8.5C13.5 8.66685 13.4392 8.82686 13.331 8.94484C13.2228 9.06282 13.0761 9.1291 12.923 9.1291L5.46882 9.1291L7.56124 11.4106Z" fill="white"/>
</svg>
