<svg width="24" height="24" viewBox="0 0 24 24" fill="none" xmlns="http://www.w3.org/2000/svg">
<g clip-path="url(#clip0_47_346)">
<path d="M11.1527 20.3086C9.55233 19.3846 7.73688 18.8982 5.88887 18.8982C4.04087 18.8982 2.22542 19.3846 0.625 20.3086V5.10186C2.22542 4.17785 4.04087 3.69141 5.88887 3.69141C7.73688 3.69141 9.55233 4.17785 11.1527 5.10186M11.1527 20.3086C12.7532 19.3846 14.5686 18.8982 16.4166 18.8982C18.2646 18.8982 20.0801 19.3846 21.6805 20.3086V5.10186C20.0801 4.17785 18.2646 3.69141 16.4166 3.69141C14.5686 3.69141 12.7532 4.17785 11.1527 5.10186M11.1527 20.3086V5.10186" stroke="#292929" stroke-width="2.3395" stroke-linecap="round" stroke-linejoin="round"/>
</g>
<defs>
<clipPath id="clip0_47_346">
<rect width="24" height="24" fill="white"/>
</clipPath>
</defs>
</svg>
