<svg width="58" height="58" viewBox="0 0 58 58" fill="none" xmlns="http://www.w3.org/2000/svg">
<rect width="58" height="58" rx="29" fill="#CCAE6D"/>
<path d="M28.9996 42.0001C26.4955 40.5544 23.655 39.7933 20.7635 39.7933C17.872 39.7933 15.0314 40.5544 12.5273 42.0001V18.2069C15.0314 16.7611 17.872 16 20.7635 16C23.655 16 26.4955 16.7611 28.9996 18.2069M28.9996 42.0001C31.5037 40.5544 34.3442 39.7933 37.2357 39.7933C40.1272 39.7933 42.9677 40.5544 45.4718 42.0001V18.2069C42.9677 16.7611 40.1272 16 37.2357 16C34.3442 16 31.5037 16.7611 28.9996 18.2069M28.9996 42.0001V18.2069" stroke="white" stroke-width="3.6605" stroke-linecap="round" stroke-linejoin="round"/>
</svg>
