<svg width="22" height="22" viewBox="0 0 22 22" fill="none" xmlns="http://www.w3.org/2000/svg">
<g clip-path="url(#clip0_37_45)">
<path d="M21.6889 10.8444C21.6889 4.85522 16.8337 0 10.8444 0C4.85522 0 0 4.85522 0 10.8444C0 16.2571 3.96564 20.7436 9.15 21.5571V13.9792H6.39653V10.8444H9.15V8.45528C9.15 5.73739 10.769 4.23611 13.2461 4.23611C14.4322 4.23611 15.6736 4.44792 15.6736 4.44792V7.11667H14.3062C12.9591 7.11667 12.5389 7.95266 12.5389 8.81111V10.8444H15.5465L15.0657 13.9792H12.5389V21.5571C17.7233 20.7436 21.6889 16.2571 21.6889 10.8444Z" fill="#1877F2"/>
<path d="M15.0657 13.9794L15.5465 10.8447H12.5388V8.81133C12.5388 7.95373 12.9591 7.11688 14.3062 7.11688H15.6736V4.44813C15.6736 4.44813 14.4326 4.23633 13.2461 4.23633C10.769 4.23633 9.14996 5.73761 9.14996 8.45549V10.8447H6.39648V13.9794H9.14996V21.5574C10.2728 21.733 11.416 21.733 12.5388 21.5574V13.9794H15.0657Z" fill="white"/>
</g>
<defs>
<clipPath id="clip0_37_45">
<rect width="21.6889" height="21.6889" fill="white"/>
</clipPath>
</defs>
</svg>
