<svg width="412" height="857" viewBox="0 0 412 857" fill="none" xmlns="http://www.w3.org/2000/svg">
<path d="M64.0591 448.512C65.4525 441.894 62.7527 432.488 64.3204 424.911C78.6902 355.326 151.41 260.05 194.694 202.571C197.916 198.303 206.103 190.814 199.919 203.703L207.67 217.724C207.844 195.168 228.049 158.329 244.509 143.524C250.344 138.299 258.792 137.166 264.104 132.638C270.723 126.977 276.819 114.523 285.964 106.598C337.434 61.3983 404.754 18.2889 471.03 0C477.823 3.57068 471.465 7.57681 468.94 10.9733C454.657 30.3072 438.806 47.551 426.178 68.3655C413.55 89.1799 407.977 117.571 386.204 130.722L360.077 154.671L386.204 139.431C390.907 154.846 377.234 175.138 372.009 192.73C345.098 281.213 314.442 364.122 268.72 444.245C262.188 447.903 240.329 465.495 257.834 466.017L281.784 446.422C275.078 465.234 271.507 485.177 265.585 504.25C259.663 523.323 250.257 542.047 244.596 561.642C222.562 638.107 214.376 728.854 149.059 783.895C133.731 796.784 109.085 806.8 96.8049 818.731C86.267 828.833 81.3029 846.513 68.5878 855.918C65.8009 867.85 98.0241 866.892 94.6276 884.135L60.0529 875.688L46.7282 936.389C63.3624 936.389 88.0088 933.864 81.1287 955.636L68.3265 965.303C64.7558 1013.2 89.141 1045.16 132.599 1061.71C176.057 1078.26 201.661 1070.86 194.345 1134.17C190.339 1168.92 172.225 1185.03 161.948 1210.9C158.987 1218.3 167.609 1225.09 160.119 1230.4C76.4259 1242.68 -9.35758 1243.64 -92.8767 1230.58C-107.072 1189.82 -144.085 1141.66 -126.232 1096.46C-113.082 1063.28 -80.9454 1069.99 -53.2508 1056.22C-16.4119 1037.94 2.39954 1006.76 -0.996964 965.216L-13.7992 955.549C-20.6793 933.777 3.96715 936.215 20.6013 936.389V888.49L7.53783 890.667C13.7212 886.226 9.80215 876.21 13.1116 871.943C14.3308 870.288 20.7755 871.595 20.8625 868.721C21.0367 862.015 11.9794 852.435 9.62799 844.945C-2.65167 806.19 2.13826 734.951 7.18947 694.28C8.84418 681.129 2.22534 657.528 20.6013 666.324C9.71507 607.8 31.4875 550.146 38.1064 492.144L51.6923 528.635L64.1462 544.398C57.9628 518.271 47.512 501.028 50.9085 472.288C52.6503 457.134 62.6657 455.741 64.2333 448.6L64.0591 448.512ZM229.443 309.169C217.947 306.904 222.04 311.694 218.731 317.791C167.348 415.767 129.202 517.836 97.8499 623.824C79.2998 704.818 49.8635 783.895 37.9322 866.543C49.5151 868.459 45.509 864.627 47.7733 856.964C88.0959 718.926 111.784 584.198 166.39 448.512C185.375 401.31 210.805 356.546 229.443 309.169ZM247.993 470.111C247.993 463.056 237.281 463.056 237.194 470.111C237.194 477.165 247.906 477.165 247.993 470.111ZM66.2364 548.666C63.4495 548.666 63.4495 553.02 66.2364 553.02C69.0232 553.02 69.0232 548.666 66.2364 548.666ZM24.8687 683.568V670.504H20.6013V683.568H24.8687Z" fill="black" fill-opacity="0.07"/>
</svg>
