<svg width="22" height="22" viewBox="0 0 22 22" fill="none" xmlns="http://www.w3.org/2000/svg">
<g clip-path="url(#clip0_37_42)">
<path d="M21.4767 11.0942C21.4767 10.357 21.4169 9.61585 21.2894 8.89062H11.0605V13.0666H16.9181C16.675 14.4135 15.894 15.6049 14.7504 16.362V19.0716H18.245C20.2972 17.1828 21.4767 14.3935 21.4767 11.0942Z" fill="#4285F4"/>
<path d="M11.062 21.6897C13.9868 21.6897 16.4533 20.7294 18.2504 19.0718L14.7558 16.3622C13.7835 17.0236 12.5283 17.3982 11.0659 17.3982C8.23679 17.3982 5.83798 15.4895 4.97728 12.9233H1.37109V15.7166C3.21204 19.3786 6.96167 21.6897 11.062 21.6897Z" fill="#34A853"/>
<path d="M4.97257 12.9229C4.51831 11.5761 4.51831 10.1177 4.97257 8.77083V5.97754H1.37038C-0.16773 9.0418 -0.16773 12.652 1.37038 15.7162L4.97257 12.9229Z" fill="#FBBC04"/>
<path d="M11.062 4.29229C12.608 4.26838 14.1023 4.85015 15.222 5.91806L18.3182 2.82192C16.3577 0.980975 13.7556 -0.0311471 11.062 0.000730795C6.96167 0.000730795 3.21204 2.31187 1.37109 5.97783L4.97329 8.77112C5.83001 6.20097 8.2328 4.29229 11.062 4.29229Z" fill="#EA4335"/>
</g>
<defs>
<clipPath id="clip0_37_42">
<rect width="21.6889" height="21.6889" fill="white"/>
</clipPath>
</defs>
</svg>
