<svg width="74" height="24" viewBox="0 0 74 24" fill="none" xmlns="http://www.w3.org/2000/svg">
<path fill-rule="evenodd" clip-rule="evenodd" d="M36.2865 1.21065C36.6476 0.929784 37.1532 0.929784 37.5143 1.21065L46.5143 8.21065C46.7579 8.4001 46.9004 8.69141 46.9004 9V20C46.9004 20.7957 46.5843 21.5587 46.0217 22.1213C45.4591 22.6839 44.696 23 43.9004 23H29.9004C29.1047 23 28.3417 22.6839 27.7791 22.1213C27.2165 21.5587 26.9004 20.7957 26.9004 20V9C26.9004 8.69141 27.0429 8.4001 27.2865 8.21065L36.2865 1.21065ZM28.9004 9.48908V20C28.9004 20.2652 29.0057 20.5196 29.1933 20.7071C29.3808 20.8946 29.6352 21 29.9004 21H43.9004C44.1656 21 44.42 20.8946 44.6075 20.7071C44.795 20.5196 44.9004 20.2652 44.9004 20V9.48908L36.9004 3.26686L28.9004 9.48908Z" fill="#292929"/>
<path fill-rule="evenodd" clip-rule="evenodd" d="M32.9004 12C32.9004 11.4477 33.3481 11 33.9004 11H39.9004C40.4527 11 40.9004 11.4477 40.9004 12V22C40.9004 22.5523 40.4527 23 39.9004 23C39.3481 23 38.9004 22.5523 38.9004 22V13H34.9004V22C34.9004 22.5523 34.4527 23 33.9004 23C33.3481 23 32.9004 22.5523 32.9004 22V12Z" fill="#292929"/>
</svg>
