<svg width="58" height="58" viewBox="0 0 58 58" fill="none" xmlns="http://www.w3.org/2000/svg">
<rect width="58" height="58" rx="29" fill="#CCAE6D"/>
<path d="M11.2667 22.6667H46.7333M11.2667 35.3333H46.7333M27.9444 10C24.3879 15.6992 22.5024 22.2822 22.5024 29C22.5024 35.7178 24.3879 42.3008 27.9444 48M30.0556 10C33.6121 15.6992 35.4976 22.2822 35.4976 29C35.4976 35.7178 33.6121 42.3008 30.0556 48M10 29C10 31.4951 10.4914 33.9658 11.4463 36.271C12.4011 38.5762 13.8007 40.6707 15.565 42.435C17.3293 44.1993 19.4238 45.5989 21.729 46.5537C24.0342 47.5086 26.5049 48 29 48C31.4951 48 33.9658 47.5086 36.271 46.5537C38.5762 45.5989 40.6707 44.1993 42.435 42.435C44.1993 40.6707 45.5989 38.5762 46.5537 36.271C47.5086 33.9658 48 31.4951 48 29C48 23.9609 45.9982 19.1282 42.435 15.565C38.8718 12.0018 34.0391 10 29 10C23.9609 10 19.1282 12.0018 15.565 15.565C12.0018 19.1282 10 23.9609 10 29Z" stroke="white" stroke-width="3" stroke-linecap="round" stroke-linejoin="round"/>
</svg>
