<svg width="111" height="62" viewBox="0 0 111 62" fill="none" xmlns="http://www.w3.org/2000/svg">
<path d="M22.694 20.8453C22.621 21.1812 22.1588 21.246 22.0736 21.9462C21.9155 23.2779 22.4021 24.0793 22.6899 25.2977L22.1101 24.565L21.4776 22.8691C21.1735 25.5648 20.1599 28.2484 20.6627 30.9643C19.8112 30.5555 20.1153 31.6484 20.0383 32.2636C19.8031 34.1539 19.5801 37.4648 20.1518 39.266C20.2613 39.6141 20.6829 40.0553 20.6748 40.371C20.6748 40.5046 20.3748 40.4439 20.314 40.5208C20.164 40.7151 20.3424 41.1846 20.0545 41.391L20.6586 41.2898V43.516C19.8883 43.512 18.7408 43.3946 19.0611 44.4065L19.6571 44.8558C19.8153 46.7865 18.9395 48.2355 17.2244 49.0855C15.9351 49.7251 14.439 49.4134 13.8268 50.9556C12.9915 53.0522 14.7147 55.2946 15.3796 57.1889C19.2679 57.8001 23.2616 57.7556 27.158 57.1808C27.5067 56.9339 27.1093 56.6141 27.2431 56.2741C27.7256 55.072 28.5649 54.3191 28.7514 52.7082C29.092 49.7615 27.9 50.1096 25.8768 49.3405C23.8536 48.5715 22.7183 47.086 22.8845 44.8598L23.4806 44.4105C23.8009 43.3986 22.6534 43.516 21.879 43.516L22.4994 40.6948L24.109 41.0874C24.2671 40.286 22.7629 40.3305 22.8967 39.776C23.4887 39.3429 23.7198 38.5212 24.2104 38.0477C24.7821 37.4972 25.9295 37.0317 26.6431 36.4286C29.684 33.8705 30.0691 29.6488 31.0909 26.0991C31.3544 25.1884 31.7842 24.3384 32.068 23.4317C32.3437 22.5453 32.51 21.6184 32.8222 20.7441L31.7072 21.6548C30.8922 21.6346 31.9099 20.8169 32.214 20.6429C32.2667 20.6145 32.4613 20.7198 32.5789 20.5943C32.6924 20.4729 32.4856 20.1572 32.8222 20.2381L32.9438 20.651C35.5022 20.7117 38.1133 20.3757 40.6109 21.0557C40.7406 21.0598 41.0082 19.9467 41.8353 20.0196C42.7354 20.4688 42.5814 21.3391 43.9477 21.0638C44.3978 22.0555 44.2478 23.711 42.8733 23.0917C42.6503 23.1322 41.9813 24.8362 40.9758 23.8365C40.7812 23.6422 40.8379 22.8731 40.4284 23.0715C40.4284 23.0715 40.0432 23.2172 39.8202 23.6786C39.1229 25.0993 39.5527 40.6989 39.5527 40.6989C39.6905 45.7098 38.9769 57.3751 39.8081 57.4925C39.8527 57.5006 40.2662 57.5451 40.5217 57.8325C40.5784 57.8932 40.623 57.9782 40.6433 58.0956C41.4948 57.6179 42.1151 58.0106 42.3705 58.8848C43.9153 58.2656 44.0207 59.7187 43.5463 60.8965C42.3138 60.7225 42.5084 61.0949 41.9408 61.617C41.3123 62.1958 40.4406 61.6898 40.323 60.9168L39.7189 61.4227C14.662 62.2282 5.21091 62.1189 4.54597 61.536C4.48921 61.4875 4.027 61.0341 3.56884 61.1313C3.14311 61.2203 2.82686 62.5196 1.82945 61.617C1.26182 61.1029 1.45643 60.7184 0.219806 60.8965C-0.157264 60.346 -0.0802279 58.6541 0.694184 58.6906L1.39562 58.8848C1.88621 57.4601 2.97282 57.622 3.55262 58.9051L4.66355 58.3587C4.67572 52.7365 4.68383 47.1144 4.69599 41.4882C4.72437 32.98 4.75681 26.8438 4.83384 25.8036C4.85006 25.6093 4.84601 24.8969 4.6149 24.0267C4.55408 23.7919 4.20539 23.5936 4.24999 23.2779C3.75129 23.1767 3.56884 23.8203 3.24042 23.9903C2.55115 24.3465 1.97136 23.7353 1.80107 23.0876C0.35766 23.6826 0.191425 22.4319 0.491459 21.246L0.730675 21.08C1.95919 21.2257 1.61456 20.9262 2.11326 20.4405C2.82686 19.7484 3.46747 20.1774 3.84049 20.9626C4.29865 21.3067 4.65545 20.5822 5.15415 20.6388C10.6237 20.7846 16.1176 20.4891 21.5871 20.6429C21.9763 20.655 22.3575 20.6065 22.698 20.8493L22.694 20.8453ZM24.2144 41.2858C24.0847 41.2858 24.0847 41.4882 24.2144 41.4882C24.3442 41.4882 24.3442 41.2858 24.2144 41.2858Z" fill="#CCAE6D"/>
<path d="M24.2144 41.4882C24.3442 41.4882 24.3442 41.2858 24.2144 41.2858C24.0847 41.2858 24.0847 41.4882 24.2144 41.4882Z" fill="#FDFDFD"/>
<path d="M37.6916 6.4762L36.4753 7.18453L37.6916 6.07144C37.7119 6.19691 37.6592 6.37096 37.6916 6.4762Z" fill="#CCAE6D"/>
<path d="M22.694 20.8453C22.7589 20.5376 22.6332 20.1005 22.7061 19.7484C23.3751 16.5143 26.7607 12.0862 28.7757 9.41478C28.9258 9.21644 29.3069 8.86835 29.019 9.46739L29.3799 10.1191C29.388 9.07073 30.3286 7.35858 31.0949 6.67049C31.3666 6.42763 31.7599 6.37501 32.0072 6.16453C32.3153 5.90144 32.5991 5.32263 33.0249 4.95429C35.4211 2.85358 38.5552 0.850001 41.6407 0C41.957 0.165953 41.661 0.352143 41.5434 0.510001C40.8785 1.40857 40.1405 2.21 39.5526 3.17739C38.9647 4.14477 38.7052 5.46429 37.6916 6.07549L36.4753 7.18858L37.6916 6.48025C37.9106 7.19668 37.274 8.13977 37.0307 8.95739C35.7779 13.0698 34.3507 16.9231 32.2221 20.6469C31.918 20.8169 30.9003 21.6346 31.7153 21.6588L32.8303 20.7481C32.5181 21.6224 32.3518 22.5493 32.0761 23.4357C31.8004 24.3222 31.3625 25.1924 31.099 26.1031C30.0732 29.6569 29.6921 33.8746 26.6512 36.4327C25.9376 37.0317 24.7902 37.4972 24.2185 38.0517C23.7279 38.5212 23.4968 39.3429 22.9048 39.7801C22.7751 40.3346 24.2752 40.2901 24.1171 41.0915L22.5075 40.6989L21.8871 43.5201C22.6615 43.5201 23.809 43.4027 23.4887 44.4146L22.8926 44.8639C22.7264 47.0901 23.8617 48.5755 25.8849 49.3446C27.9081 50.1136 29.1001 49.7696 28.7595 52.7122C28.573 54.3272 27.7297 55.076 27.2512 56.2782C27.1134 56.6222 27.5148 56.9379 27.1661 57.1848C23.2697 57.7556 19.276 57.8001 15.3877 57.1929C14.7269 55.2987 13.0037 53.0603 13.8349 50.9596C14.4471 49.4175 15.9432 49.7291 17.2325 49.0896C18.9476 48.2396 19.8234 46.7905 19.6653 44.8598L19.0692 44.4105C18.7489 43.3986 19.8964 43.512 20.6708 43.5201V41.2939L20.0626 41.3951C20.3505 41.1886 20.168 40.7232 20.3221 40.5248C20.3788 40.4479 20.6789 40.5086 20.6829 40.3751C20.691 40.0634 20.2694 39.6182 20.1599 39.2701C19.5882 37.4689 19.8112 34.1579 20.0464 32.2677C20.1234 31.6565 19.8153 30.5596 20.6708 30.9684C20.164 28.2484 21.1776 25.5688 21.4857 22.8731L22.1182 24.5691L22.698 25.3017C22.4102 24.0874 21.9236 23.286 22.0817 21.9503C22.1628 21.246 22.6291 21.1812 22.7021 20.8493L22.694 20.8453ZM30.3935 14.3691C29.8583 14.2638 30.0489 14.4865 29.8948 14.7698C27.5026 19.3234 25.7267 24.0672 24.2671 28.9931C23.4035 32.7574 22.0331 36.4327 21.4776 40.2739C22.0169 40.3629 21.8304 40.1848 21.9358 39.8286C23.813 33.4131 24.9158 27.1515 27.458 20.8453C28.3419 18.6515 29.5258 16.571 30.3935 14.3691ZM31.2571 21.8491C31.2571 21.5212 30.7584 21.5212 30.7543 21.8491C30.7543 22.1769 31.253 22.1769 31.2571 21.8491ZM22.7953 25.5C22.6656 25.5 22.6656 25.7024 22.7953 25.7024C22.9251 25.7024 22.9251 25.5 22.7953 25.5ZM20.8694 31.7698V31.1627H20.6708V31.7698H20.8694Z" fill="#FDFDFD"/>
<path d="M30.3935 14.3691C29.5218 16.571 28.3419 18.6515 27.458 20.8453C24.9158 27.1515 23.813 33.4131 21.9358 39.8286C21.8304 40.1808 22.0209 40.3629 21.4776 40.2739C22.0331 36.4327 23.3995 32.7574 24.2671 28.9931C25.7267 24.0712 27.5026 19.3234 29.8948 14.7698C30.0489 14.4865 29.8624 14.2638 30.3935 14.3691Z" fill="#CCAE6D"/>
<path d="M31.2571 21.8491C31.2571 22.1769 30.7584 22.1769 30.7543 21.8491C30.7543 21.5212 31.253 21.5212 31.2571 21.8491Z" fill="#CCAE6D"/>
<path d="M20.8654 31.1667H20.6667V31.7739H20.8654V31.1667Z" fill="#CCAE6D"/>
<path d="M22.7953 25.7024C22.9251 25.7024 22.9251 25.5 22.7953 25.5C22.6656 25.5 22.6656 25.7024 22.7953 25.7024Z" fill="#CCAE6D"/>
<path d="M61.988 28.4542C62.6723 28.7508 63.2156 29.2091 63.6181 29.8293C64.0206 30.4359 64.2219 31.1234 64.2219 31.8919C64.2219 33.1321 63.7456 34.1027 62.793 34.8038C61.8539 35.5048 60.5525 35.8553 58.8889 35.8553H51.9258V21.7002H58.8889C60.4049 21.7002 61.599 22.0372 62.471 22.7113C63.3431 23.3853 63.7791 24.302 63.7791 25.4614C63.7791 26.1489 63.6181 26.7556 63.2961 27.2813C62.9875 27.7936 62.5515 28.1846 61.988 28.4542ZM55.1658 24.4301V27.2409H58.9492C59.4725 27.2409 59.875 27.1196 60.1567 26.8769C60.4384 26.6343 60.5793 26.2905 60.5793 25.8456C60.5793 25.4007 60.4317 25.057 60.1366 24.8143C59.8548 24.5582 59.4591 24.4301 58.9492 24.4301H55.1658ZM59.1102 33.0647C59.7005 33.0647 60.1567 32.9232 60.4787 32.6401C60.8141 32.357 60.9818 31.966 60.9818 31.4672C60.9818 30.9549 60.8141 30.564 60.4787 30.2944C60.1567 30.0113 59.7005 29.8697 59.1102 29.8697H55.1658V33.0647H59.1102Z" fill="white"/>
<path d="M71.8014 25.6434C72.2575 25.6434 72.7137 25.731 73.1699 25.9063C73.626 26.0681 74.0218 26.3107 74.3572 26.6343L73.029 28.9597C72.7472 28.7845 72.4856 28.6564 72.2441 28.5755C72.0026 28.4946 71.7477 28.4542 71.4794 28.4542C70.8086 28.4542 70.2786 28.6699 69.8896 29.1013C69.5005 29.5327 69.306 30.1663 69.306 31.0021V35.8553H66.1464V25.8658H68.9035L69.145 27.1196C69.7889 26.1355 70.6744 25.6434 71.8014 25.6434Z" fill="white"/>
<path d="M85.5915 25.8658V35.8553H82.8546L82.6534 34.6622C81.8081 35.5924 80.708 36.0575 79.353 36.0575C78.4272 36.0575 77.6021 35.8418 76.8776 35.4104C76.1666 34.9655 75.6098 34.3521 75.2073 33.5702C74.8048 32.7749 74.6036 31.8716 74.6036 30.8606C74.6036 29.8495 74.8048 28.953 75.2073 28.1711C75.6098 27.3757 76.1666 26.7623 76.8776 26.3309C77.6021 25.8861 78.4272 25.6636 79.353 25.6636C80.0238 25.6636 80.6409 25.7849 81.2044 26.0276C81.7679 26.2568 82.2509 26.5938 82.6534 27.0387L82.8546 25.8658H85.5915ZM80.0976 33.3883C80.7952 33.3883 81.3654 33.1591 81.8081 32.7007C82.2509 32.2289 82.4723 31.6155 82.4723 30.8606C82.4723 30.1056 82.2509 29.499 81.8081 29.0406C81.3654 28.5688 80.7952 28.3329 80.0976 28.3329C79.3999 28.3329 78.8297 28.5688 78.387 29.0406C77.9577 29.5125 77.743 30.1191 77.743 30.8606C77.743 31.602 77.9577 32.2087 78.387 32.6805C78.8297 33.1523 79.3999 33.3883 80.0976 33.3883Z" fill="white"/>
<path d="M94.099 25.6434C95.3333 25.6434 96.3127 26.0478 97.0372 26.8567C97.7751 27.6656 98.144 28.7845 98.144 30.2135V35.8553H94.9845V30.3955C94.9845 29.7484 94.8235 29.2428 94.5015 28.8788C94.1795 28.5149 93.7368 28.3329 93.1733 28.3329C92.5561 28.3329 92.0597 28.5418 91.6841 28.9597C91.3084 29.3776 91.1206 29.9236 91.1206 30.5977V35.8553H87.9611V25.8658H90.698L90.8992 27.0387C91.2883 26.5938 91.7512 26.25 92.2878 26.0074C92.8379 25.7647 93.4416 25.6434 94.099 25.6434Z" fill="white"/>
<path d="M110.826 25.8658V35.8553H108.089L107.888 34.6622C107.042 35.5924 105.942 36.0575 104.587 36.0575C103.661 36.0575 102.836 35.8418 102.112 35.4104C101.401 34.9655 100.844 34.3521 100.442 33.5702C100.039 32.7749 99.8378 31.8716 99.8378 30.8606C99.8378 29.8495 100.039 28.953 100.442 28.1711C100.844 27.3757 101.401 26.7623 102.112 26.3309C102.836 25.8861 103.661 25.6636 104.587 25.6636C105.258 25.6636 105.875 25.7849 106.439 26.0276C107.002 26.2568 107.485 26.5938 107.888 27.0387L108.089 25.8658H110.826ZM105.332 33.3883C106.029 33.3883 106.6 33.1591 107.042 32.7007C107.485 32.2289 107.706 31.6155 107.706 30.8606C107.706 30.1056 107.485 29.499 107.042 29.0406C106.6 28.5688 106.029 28.3329 105.332 28.3329C104.634 28.3329 104.064 28.5688 103.621 29.0406C103.192 29.5125 102.977 30.1191 102.977 30.8606C102.977 31.602 103.192 32.2087 103.621 32.6805C104.064 33.1523 104.634 33.3883 105.332 33.3883Z" fill="white"/>
<path d="M61.988 52.8065C62.6723 53.103 63.2156 53.5614 63.6181 54.1815C64.0206 54.7882 64.2219 55.4757 64.2219 56.2441C64.2219 57.4844 63.7456 58.455 62.793 59.156C61.8539 59.857 60.5525 60.2075 58.8889 60.2075H51.9258V46.0525H58.8889C60.4049 46.0525 61.599 46.3895 62.471 47.0635C63.3431 47.7376 63.7791 48.6543 63.7791 49.8137C63.7791 50.5012 63.6181 51.1078 63.2961 51.6336C62.9875 52.1459 62.5515 52.5368 61.988 52.8065ZM55.1658 48.7824V51.5932H58.9492C59.4725 51.5932 59.875 51.4718 60.1567 51.2292C60.4384 50.9865 60.5793 50.6427 60.5793 50.1979C60.5793 49.753 60.4317 49.4092 60.1366 49.1666C59.8548 48.9104 59.4591 48.7824 58.9492 48.7824H55.1658ZM59.1102 57.417C59.7005 57.417 60.1567 57.2754 60.4787 56.9923C60.8141 56.7092 60.9818 56.3183 60.9818 55.8195C60.9818 55.3072 60.8141 54.9162 60.4787 54.6466C60.1567 54.3635 59.7005 54.222 59.1102 54.222H55.1658V57.417H59.1102Z" fill="white"/>
<path d="M67.7756 49.2272C67.2255 49.2272 66.776 49.0655 66.4272 48.7419C66.0918 48.4184 65.9241 48.0072 65.9241 47.5084C65.9241 46.9961 66.0985 46.5782 66.4473 46.2547C66.7962 45.9311 67.2389 45.7694 67.7756 45.7694C68.3122 45.7694 68.7549 45.9311 69.1038 46.2547C69.4526 46.5782 69.627 46.9961 69.627 47.5084C69.627 48.0072 69.4526 48.4184 69.1038 48.7419C68.7684 49.0655 68.3256 49.2272 67.7756 49.2272ZM66.1857 50.2181H69.3453V60.2075H66.1857V50.2181Z" fill="white"/>
<path d="M77.9664 50.0159C78.8921 50.0159 79.7172 50.2383 80.4417 50.6832C81.1662 51.1146 81.7297 51.728 82.1322 52.5233C82.5347 53.3052 82.7359 54.2017 82.7359 55.2128C82.7359 56.2239 82.5347 57.1271 82.1322 57.9225C81.7297 58.7044 81.1662 59.3178 80.4417 59.7627C79.7172 60.1941 78.8921 60.4098 77.9664 60.4098C76.6114 60.4098 75.5112 59.9447 74.666 59.0145L74.4647 60.2075H71.7278V46.0525H74.8874V51.1685C75.7192 50.4001 76.7455 50.0159 77.9664 50.0159ZM77.2218 57.7405C77.9195 57.7405 78.4896 57.5113 78.9324 57.053C79.3751 56.5811 79.5965 55.9678 79.5965 55.2128C79.5965 54.4579 79.3751 53.8512 78.9324 53.3929C78.4896 52.921 77.9195 52.6851 77.2218 52.6851C76.5242 52.6851 75.954 52.921 75.5112 53.3929C75.0819 53.8647 74.8672 54.4714 74.8672 55.2128C74.8672 55.9543 75.0819 56.5609 75.5112 57.0328C75.954 57.5046 76.5242 57.7405 77.2218 57.7405Z" fill="white"/>
<path d="M84.5218 46.0525H87.6814V60.2075H84.5218V46.0525Z" fill="white"/>
<path d="M94.8535 49.9957C95.9403 49.9957 96.8794 50.2046 97.671 50.6225C98.4625 51.027 99.0663 51.6066 99.4822 52.3616C99.9115 53.103 100.126 53.9726 100.126 54.9702C100.126 55.2937 100.093 55.6914 100.026 56.1632H92.7203C92.8143 56.6755 93.0893 57.0934 93.5454 57.417C94.0016 57.727 94.5852 57.8821 95.2963 57.8821C95.7927 57.8821 96.2757 57.8079 96.7452 57.6596C97.2148 57.5113 97.6173 57.3024 97.9527 57.0328L99.6029 58.8123C99.0394 59.338 98.3686 59.7424 97.5905 60.0255C96.8257 60.3086 96.0073 60.4502 95.1353 60.4502C93.9815 60.4502 92.982 60.2412 92.1367 59.8233C91.2915 59.3919 90.6408 58.7853 90.1847 58.0034C89.7285 57.2215 89.5004 56.298 89.5004 55.233C89.5004 54.2085 89.7218 53.2985 90.1645 52.5031C90.6207 51.7077 91.2513 51.0944 92.0562 50.663C92.8612 50.2181 93.7936 49.9957 94.8535 49.9957ZM94.9542 52.5031C94.3236 52.5031 93.8071 52.6649 93.4046 52.9884C93.0155 53.312 92.7941 53.7636 92.7405 54.3433H97.1276C97.0874 53.7636 96.8727 53.312 96.4836 52.9884C96.108 52.6649 95.5981 52.5031 94.9542 52.5031Z" fill="white"/>
</svg>
