<svg width="26" height="18" viewBox="0 0 26 18" fill="none" xmlns="http://www.w3.org/2000/svg">
<path d="M5.27195 0H0.753136C0.338911 0 0 0.3375 0 0.75V17.25C0 17.6625 0.338911 18 0.753136 18H5.27195C5.68617 18 6.02508 17.6625 6.02508 17.25V0.75C6.02508 0.3375 5.68617 0 5.27195 0ZM4.51881 4.5H1.50627V3H4.51881V4.5ZM12.8033 0H8.28449C7.87027 0 7.53136 0.3375 7.53136 0.75V17.25C7.53136 17.6625 7.87027 18 8.28449 18H12.8033C13.2175 18 13.5564 17.6625 13.5564 17.25V0.75C13.5564 0.3375 13.2175 0 12.8033 0ZM12.0502 4.5H9.03763V3H12.0502V4.5Z" fill="#292929"/>
<path d="M18.006 1.1595L13.9707 3.1845C13.7924 3.27388 13.657 3.4301 13.5943 3.61883C13.5316 3.80756 13.5467 4.01335 13.6363 4.191L20.4145 17.586C20.5043 17.7636 20.6611 17.8984 20.8506 17.9608C21.0402 18.0233 21.2468 18.0082 21.4252 17.919L25.4605 15.894C25.6388 15.8046 25.7742 15.6484 25.8369 15.4597C25.8996 15.2709 25.8845 15.0651 25.7949 14.8875L19.0167 1.4925C18.9269 1.31494 18.77 1.18013 18.5805 1.11769C18.391 1.05525 18.1844 1.07029 18.006 1.1595Z" fill="#292929"/>
<path d="M21.8409 17.25C21.8409 17.4489 21.7616 17.6397 21.6203 17.7803C21.4791 17.921 21.2875 18 21.0878 18C20.8881 18 20.6965 17.921 20.5552 17.7803C20.414 17.6397 20.3347 17.4489 20.3347 17.25C20.3347 17.0511 20.414 16.8603 20.5552 16.7197C20.6965 16.579 20.8881 16.5 21.0878 16.5C21.2875 16.5 21.4791 16.579 21.6203 16.7197C21.7616 16.8603 21.8409 17.0511 21.8409 17.25Z" fill="#292929"/>
</svg>
