<svg width="109" height="154" viewBox="0 0 109 154" fill="none" xmlns="http://www.w3.org/2000/svg">
<g clip-path="url(#clip0_10_17)" filter="url(#filter0_n_10_17)">
<path d="M55.9702 51.5099C55.7902 52.3399 54.6502 52.4999 54.4402 54.2299C54.0502 57.5199 55.2502 59.4999 55.9602 62.5099L54.5302 60.6999L52.9702 56.5099C52.2202 63.1699 49.7202 69.7999 50.9602 76.5099C48.8602 75.4999 49.6102 78.1999 49.4202 79.7199C48.8402 84.3899 48.2902 92.5699 49.7002 97.0199C49.9702 97.8799 51.0102 98.9699 50.9902 99.7499C50.9902 100.08 50.2502 99.9299 50.1002 100.12C49.7302 100.6 50.1702 101.76 49.4602 102.27L50.9502 102.02V107.52C49.0502 107.51 46.2202 107.22 47.0102 109.72L48.4802 110.83C48.8702 115.6 46.7102 119.18 42.4802 121.28C39.3002 122.86 35.6102 122.09 34.1002 125.9C32.0402 131.08 36.2902 136.62 37.9302 141.3C47.5202 142.81 57.3702 142.7 66.9802 141.28C67.8402 140.67 66.8602 139.88 67.1902 139.04C68.3802 136.07 70.4502 134.21 70.9102 130.23C71.7502 122.95 68.8102 123.81 63.8202 121.91C58.8302 120.01 56.0302 116.34 56.4402 110.84L57.9102 109.73C58.7002 107.23 55.8702 107.52 53.9602 107.52L55.4902 100.55L59.4602 101.52C59.8502 99.5399 56.1402 99.6499 56.4702 98.2799C57.9302 97.2099 58.5002 95.1799 59.7102 94.0099C61.1202 92.6499 63.9502 91.4999 65.7102 90.0099C73.2102 83.6899 74.1602 73.2599 76.6802 64.4899C77.3302 62.2399 78.3902 60.1399 79.0902 57.8999C79.7702 55.7099 80.1802 53.4199 80.9502 51.2599L78.2002 53.5099C76.1902 53.4599 78.7002 51.4399 79.4502 51.0099C79.5802 50.9399 80.0602 51.1999 80.3502 50.8899C80.6302 50.5899 80.1202 49.8099 80.9502 50.0099L81.2502 51.0299C87.5602 51.1799 94.0002 50.3499 100.16 52.0299C100.48 52.0399 101.14 49.2899 103.18 49.4699C105.4 50.5799 105.02 52.7299 108.39 52.0499C109.5 54.4999 109.13 58.5899 105.74 57.0599C105.19 57.1599 103.54 61.3699 101.06 58.8999C100.58 58.4199 100.72 56.5199 99.7102 57.0099C99.7102 57.0099 98.7602 57.3699 98.2102 58.5099C96.4902 62.0199 97.5502 100.56 97.5502 100.56C97.8902 112.94 96.1302 141.76 98.1802 142.05C98.2902 142.07 99.3102 142.18 99.9402 142.89C100.08 143.04 100.19 143.25 100.24 143.54C102.34 142.36 103.87 143.33 104.5 145.49C108.31 143.96 108.57 147.55 107.4 150.46C104.36 150.03 104.84 150.95 103.44 152.24C101.89 153.67 99.7402 152.42 99.4502 150.51L97.9602 151.76C36.1602 153.75 12.8502 153.48 11.2102 152.04C11.0702 151.92 9.93017 150.8 8.80017 151.04C7.75017 151.26 6.97017 154.47 4.51017 152.24C3.11017 150.97 3.59017 150.02 0.540174 150.46C-0.389826 149.1 -0.199826 144.92 1.71017 145.01L3.44017 145.49C4.65017 141.97 7.33017 142.37 8.76017 145.54L11.5002 144.19C11.5302 130.3 11.5502 116.41 11.5802 102.51C11.6502 81.4899 11.7302 66.3299 11.9202 63.7599C11.9602 63.2799 11.9502 61.5199 11.3802 59.3699C11.2302 58.7899 10.3702 58.2999 10.4802 57.5199C9.25017 57.2699 8.80017 58.8599 7.99017 59.2799C6.29017 60.1599 4.86017 58.6499 4.44017 57.0499C0.880174 58.5199 0.470174 55.4299 1.21017 52.4999L1.80017 52.0899C4.83017 52.4499 3.98017 51.7099 5.21017 50.5099C6.97017 48.7999 8.55017 49.8599 9.47017 51.7999C10.6002 52.6499 11.4802 50.8599 12.7102 50.9999C26.2002 51.3599 39.7502 50.6299 53.2402 51.0099C54.2002 51.0399 55.1402 50.9199 55.9802 51.5199L55.9702 51.5099ZM59.7202 102.01C59.4002 102.01 59.4002 102.51 59.7202 102.51C60.0402 102.51 60.0402 102.01 59.7202 102.01Z" fill="#1A2633"/>
<path d="M59.7205 102.01C60.0405 102.01 60.0405 102.51 59.7205 102.51C59.4005 102.51 59.4005 102.01 59.7205 102.01Z" fill="#FDFDFD"/>
<path d="M92.959 16.0098L89.959 17.7598L92.959 15.0098C93.009 15.3198 92.879 15.7498 92.959 16.0098Z" fill="#CCAE6D"/>
<path d="M55.9697 51.5098C56.1297 50.7498 55.8197 49.6698 55.9997 48.7998C57.6497 40.8098 65.9997 29.8698 70.9697 23.2698C71.3397 22.7798 72.2797 21.9198 71.5697 23.3998L72.4597 25.0098C72.4797 22.4198 74.7997 18.1898 76.6897 16.4898C77.3597 15.8898 78.3297 15.7598 78.9397 15.2398C79.6997 14.5898 80.3997 13.1598 81.4497 12.2498C87.3597 7.05977 95.0897 2.10977 102.7 0.00976562C103.48 0.419766 102.75 0.879766 102.46 1.26977C100.82 3.48977 98.9997 5.46977 97.5497 7.85977C96.0997 10.2498 95.4597 13.5098 92.9597 15.0198L89.9597 17.7698L92.9597 16.0198C93.4997 17.7898 91.9297 20.1198 91.3297 22.1398C88.2397 32.2998 84.7197 41.8198 79.4697 51.0198C78.7197 51.4398 76.2097 53.4598 78.2197 53.5198L80.9697 51.2698C80.1997 53.4298 79.7897 55.7198 79.1097 57.9098C78.4297 60.0998 77.3497 62.2498 76.6997 64.4998C74.1697 73.2798 73.2297 83.6998 65.7297 90.0198C63.9697 91.4998 61.1397 92.6498 59.7297 94.0198C58.5197 95.1798 57.9497 97.2098 56.4897 98.2898C56.1697 99.6598 59.8697 99.5498 59.4797 101.53L55.5097 100.56L53.9797 107.53C55.8897 107.53 58.7197 107.24 57.9297 109.74L56.4597 110.85C56.0497 116.35 58.8497 120.02 63.8397 121.92C68.8297 123.82 71.7697 122.97 70.9297 130.24C70.4697 134.23 68.3897 136.08 67.2097 139.05C66.8697 139.9 67.8597 140.68 66.9997 141.29C57.3897 142.7 47.5397 142.81 37.9497 141.31C36.3197 136.63 32.0697 131.1 34.1197 125.91C35.6297 122.1 39.3197 122.87 42.4997 121.29C46.7297 119.19 48.8897 115.61 48.4997 110.84L47.0297 109.73C46.2397 107.23 49.0697 107.51 50.9797 107.53V102.03L49.4797 102.28C50.1897 101.77 49.7397 100.62 50.1197 100.13C50.2597 99.9398 50.9997 100.09 51.0097 99.7598C51.0297 98.9898 49.9897 97.8898 49.7197 97.0298C48.3097 92.5798 48.8597 84.3998 49.4397 79.7298C49.6297 78.2198 48.8697 75.5098 50.9797 76.5198C49.7297 69.7998 52.2297 63.1798 52.9897 56.5198L54.5497 60.7098L55.9797 62.5198C55.2697 59.5198 54.0697 57.5398 54.4597 54.2398C54.6597 52.4998 55.8097 52.3398 55.9897 51.5198L55.9697 51.5098ZM74.9597 35.5098C73.6397 35.2498 74.1097 35.7998 73.7297 36.4998C67.8297 47.7498 63.4497 59.4698 59.8497 71.6398C57.7197 80.9398 54.3397 90.0198 52.9697 99.5098C54.2997 99.7298 53.8397 99.2898 54.0997 98.4098C58.7297 82.5598 61.4497 67.0898 67.7197 51.5098C69.8997 46.0898 72.8197 40.9498 74.9597 35.5098ZM77.0897 53.9898C77.0897 53.1798 75.8597 53.1798 75.8497 53.9898C75.8497 54.7998 77.0797 54.7998 77.0897 53.9898ZM56.2197 63.0098C55.8997 63.0098 55.8997 63.5098 56.2197 63.5098C56.5397 63.5098 56.5397 63.0098 56.2197 63.0098ZM51.4697 78.4998V76.9998H50.9797V78.4998H51.4697Z" fill="#CCAE6D"/>
<path d="M74.9607 35.51C72.8107 40.95 69.9007 46.09 67.7207 51.51C61.4507 67.09 58.7307 82.56 54.1007 98.41C53.8407 99.28 54.3107 99.73 52.9707 99.51C54.3407 90.02 57.7107 80.94 59.8507 71.64C63.4507 59.48 67.8307 47.75 73.7307 36.5C74.1107 35.8 73.6507 35.25 74.9607 35.51Z" fill="#1A2633"/>
<path d="M77.0896 53.9898C77.0896 54.7998 75.8596 54.7998 75.8496 53.9898C75.8496 53.1798 77.0796 53.1798 77.0896 53.9898Z" fill="#CCAE6D"/>
<path d="M51.4607 77.0098H50.9707V78.5098H51.4607V77.0098Z" fill="#CCAE6D"/>
<path d="M56.2205 63.0098C56.5405 63.0098 56.5405 63.5098 56.2205 63.5098C55.9005 63.5098 55.9005 63.0098 56.2205 63.0098Z" fill="#CCAE6D"/>
</g>
<defs>
<filter id="filter0_n_10_17" x="0" y="0" width="108.961" height="153.18" filterUnits="userSpaceOnUse" color-interpolation-filters="sRGB">
<feFlood flood-opacity="0" result="BackgroundImageFix"/>
<feBlend mode="normal" in="SourceGraphic" in2="BackgroundImageFix" result="shape"/>
<feTurbulence type="fractalNoise" baseFrequency="1.4285714626312256 1.4285714626312256" stitchTiles="stitch" numOctaves="3" result="noise" seed="6595" />
<feColorMatrix in="noise" type="luminanceToAlpha" result="alphaNoise" />
<feComponentTransfer in="alphaNoise" result="coloredNoise1">
<feFuncA type="discrete" tableValues="0 0 0 1 1 1 1 1 1 1 1 1 1 1 1 1 1 1 1 1 1 1 1 1 1 1 1 1 1 1 1 1 1 1 1 1 1 1 1 1 1 1 1 1 1 1 1 0 0 0 0 0 0 0 0 0 0 0 0 0 0 0 0 0 0 0 0 0 0 0 0 0 0 0 0 0 0 0 0 0 0 0 0 0 0 0 0 0 0 0 0 0 0 0 0 0 0 0 0 0 "/>
</feComponentTransfer>
<feComposite operator="in" in2="shape" in="coloredNoise1" result="noise1Clipped" />
<feFlood flood-color="rgba(0, 0, 0, 0.25)" result="color1Flood" />
<feComposite operator="in" in2="noise1Clipped" in="color1Flood" result="color1" />
<feMerge result="effect1_noise_10_17">
<feMergeNode in="shape" />
<feMergeNode in="color1" />
</feMerge>
</filter>
<clipPath id="clip0_10_17">
<rect width="108.96" height="153.18" fill="white"/>
</clipPath>
</defs>
</svg>
