<svg width="26" height="26" viewBox="0 0 26 26" fill="none" xmlns="http://www.w3.org/2000/svg">
<rect width="26" height="26" rx="13" fill="#CDAF6D" fill-opacity="0.2"/>
<path d="M10.2695 9.52851L5.62364 10.1894L5.54135 10.2059C5.41679 10.2383 5.30323 10.3026 5.21228 10.3922C5.12132 10.4818 5.05623 10.5935 5.02365 10.7158C4.99107 10.8382 4.99217 10.9668 5.02683 11.0886C5.06149 11.2104 5.12848 11.321 5.22095 11.4091L8.58667 14.6237L7.79294 19.1643L7.78347 19.2429C7.77585 19.3693 7.8026 19.4955 7.86099 19.6084C7.91938 19.7213 8.00731 19.817 8.11577 19.8856C8.22424 19.9543 8.34935 19.9934 8.47828 19.999C8.60721 20.0045 8.73534 19.9764 8.84955 19.9174L13.0046 17.7739L17.1503 19.9174L17.2231 19.9503C17.3433 19.9967 17.4739 20.011 17.6016 19.9916C17.7292 19.9721 17.8493 19.9197 17.9495 19.8397C18.0497 19.7597 18.1265 19.655 18.1718 19.5363C18.2172 19.4176 18.2295 19.2893 18.2076 19.1643L17.4131 14.6237L20.7803 11.4084L20.8371 11.3476C20.9183 11.2496 20.9715 11.1322 20.9913 11.0074C21.0111 10.8826 20.9969 10.7549 20.9501 10.6372C20.9032 10.5196 20.8254 10.4162 20.7246 10.3377C20.6238 10.2592 20.5036 10.2082 20.3762 10.1901L15.7303 9.52851L13.6535 5.39867C13.5934 5.27902 13.5003 5.17826 13.3849 5.1078C13.2695 5.03734 13.1362 5 13.0003 5C12.8643 5 12.7311 5.03734 12.6156 5.1078C12.5002 5.17826 12.4072 5.27902 12.3471 5.39867L10.2695 9.52851Z" fill="#CDAF6D"/>
</svg>
